<svg width="125" height="120" viewBox="0 0 125 120" fill="none" xmlns="http://www.w3.org/2000/svg">
<path d="M11.9435 10.0604C18.3066 3.49621 26.7877 -0.113336 35.5752 0.0027141C44.3627 0.118765 52.76 3.95121 58.9734 10.6815L63.2352 15.3014L67.0294 11.1927C72.5491 5.20693 79.8064 1.46597 87.5769 0.600838C95.3475 -0.264297 103.156 1.79933 109.685 6.44363C116.214 11.0879 121.064 18.0286 123.417 26.095C125.769 34.1614 125.481 42.8597 122.601 50.7227H112.833C115.874 45.0019 116.89 38.2789 115.693 31.8066C114.495 25.3344 111.166 19.5544 106.324 15.5438C101.483 11.5333 95.4599 9.56593 89.378 10.0083C83.2962 10.4507 77.5704 13.2726 73.2677 17.9482L66.3544 25.4347C65.5271 26.3304 64.4051 26.8336 63.2352 26.8336C62.0654 26.8336 60.9434 26.3304 60.1161 25.4347L52.7307 17.437C48.4185 12.75 42.6627 9.94812 36.5632 9.56687C30.4637 9.18562 24.4484 11.2517 19.6669 15.3704C14.8853 19.489 11.673 25.3712 10.6438 31.8929C9.61452 38.4145 10.8406 45.1182 14.0876 50.7227H4.16101C1.48427 43.8927 0.794769 36.3412 2.18452 29.0758C3.57426 21.8104 6.97715 15.1768 11.939 10.0604H11.9435Z" fill="black"/>
<path d="M92.8296 74.611H105.006L66.4293 118.517C66.0151 118.988 65.5165 119.363 64.964 119.618C64.4115 119.873 63.8168 120.003 63.2162 120C62.6156 119.998 62.0219 119.862 61.4714 119.602C60.9208 119.342 60.4251 118.963 60.0145 118.489L22.0376 74.611H32.9833C33.3539 74.611 33.7201 74.5919 34.0819 74.5537L63.2616 108.265L92.8296 74.611Z" fill="black"/>
<path d="M49.5315 36.643C49.1782 35.877 48.6414 35.2278 47.9771 34.7634C47.3129 34.2991 46.5456 34.0366 45.7555 34.0034C44.9654 33.9701 44.1817 34.1675 43.4861 34.5747C42.7906 34.9819 42.209 35.584 41.802 36.3181L29.8548 57.8891H4.41182C3.24173 57.8891 2.11957 58.3924 1.29219 59.2884C0.464815 60.1844 0 61.3996 0 62.6667C0 63.9338 0.464815 65.149 1.29219 66.045C2.11957 66.9409 3.24173 67.4443 4.41182 67.4443H32.3519C33.1131 67.4441 33.8614 67.2307 34.5239 66.8246C35.1865 66.4186 35.7407 65.8338 36.1328 65.1272L45.2344 48.6969L59.2904 79.1351C59.6292 79.8687 60.1367 80.4955 60.764 80.9551C61.3913 81.4147 62.1174 81.6917 62.8722 81.7593C63.627 81.827 64.3852 81.6831 65.0738 81.3415C65.7624 80.9999 66.3581 80.472 66.8037 79.8088L81.676 57.6597L91.2937 66.3359C92.0862 67.0516 93.0854 67.4438 94.1173 67.4443H120.588C121.758 67.4443 122.88 66.9409 123.708 66.045C124.535 65.149 125 63.9338 125 62.6667C125 61.3996 124.535 60.1844 123.708 59.2884C122.88 58.3924 121.758 57.8891 120.588 57.8891H95.7144L83.7054 47.0534C83.2415 46.6347 82.7032 46.3236 82.1237 46.1393C81.5443 45.9551 80.9361 45.9016 80.3368 45.9822C79.7375 46.0628 79.1599 46.2758 78.6397 46.608C78.1195 46.9402 77.6679 47.3845 77.3127 47.9134L63.936 67.8361L49.5315 36.6382V36.643Z" fill="black"/>
</svg>
