<svg width="52" height="18" viewBox="0 0 52 18" fill="none" xmlns="http://www.w3.org/2000/svg">
<path d="M9 1L1 9L9 17" stroke="black" stroke-width="2" stroke-linecap="round" stroke-linejoin="round"/>
<path d="M43 17L51 9L43 1" stroke="black" stroke-width="2" stroke-linecap="round" stroke-linejoin="round"/>
<path d="M14.924 13.084C14.26 13.084 13.664 12.944 13.136 12.664C12.608 12.384 12.196 11.996 11.9 11.5C11.604 10.996 11.456 10.428 11.456 9.796C11.456 9.164 11.604 8.6 11.9 8.104C12.196 7.608 12.604 7.22 13.124 6.94C13.652 6.66 14.252 6.52 14.924 6.52C15.556 6.52 16.108 6.648 16.58 6.904C17.06 7.16 17.42 7.528 17.66 8.008L16.508 8.68C16.324 8.384 16.092 8.164 15.812 8.02C15.54 7.868 15.24 7.792 14.912 7.792C14.352 7.792 13.888 7.976 13.52 8.344C13.152 8.704 12.968 9.188 12.968 9.796C12.968 10.404 13.148 10.892 13.508 11.26C13.876 11.62 14.344 11.8 14.912 11.8C15.24 11.8 15.54 11.728 15.812 11.584C16.092 11.432 16.324 11.208 16.508 10.912L17.66 11.584C17.412 12.064 17.048 12.436 16.568 12.7C16.096 12.956 15.548 13.084 14.924 13.084ZM21.7429 13.084C21.0949 13.084 20.5109 12.944 19.9909 12.664C19.4709 12.384 19.0629 11.996 18.7669 11.5C18.4789 10.996 18.3349 10.428 18.3349 9.796C18.3349 9.164 18.4789 8.6 18.7669 8.104C19.0629 7.608 19.4709 7.22 19.9909 6.94C20.5109 6.66 21.0949 6.52 21.7429 6.52C22.3989 6.52 22.9869 6.66 23.5069 6.94C24.0269 7.22 24.4309 7.608 24.7189 8.104C25.0149 8.6 25.1629 9.164 25.1629 9.796C25.1629 10.428 25.0149 10.996 24.7189 11.5C24.4309 11.996 24.0269 12.384 23.5069 12.664C22.9869 12.944 22.3989 13.084 21.7429 13.084ZM21.7429 11.8C22.2949 11.8 22.7509 11.616 23.1109 11.248C23.4709 10.88 23.6509 10.396 23.6509 9.796C23.6509 9.196 23.4709 8.712 23.1109 8.344C22.7509 7.976 22.2949 7.792 21.7429 7.792C21.1909 7.792 20.7349 7.976 20.3749 8.344C20.0229 8.712 19.8469 9.196 19.8469 9.796C19.8469 10.396 20.0229 10.88 20.3749 11.248C20.7349 11.616 21.1909 11.8 21.7429 11.8ZM32.8733 4.096V13H31.4333V12.172C31.1853 12.476 30.8773 12.704 30.5093 12.856C30.1493 13.008 29.7493 13.084 29.3093 13.084C28.6933 13.084 28.1373 12.948 27.6413 12.676C27.1533 12.404 26.7693 12.02 26.4893 11.524C26.2093 11.02 26.0693 10.444 26.0693 9.796C26.0693 9.148 26.2093 8.576 26.4893 8.08C26.7693 7.584 27.1533 7.2 27.6413 6.928C28.1373 6.656 28.6933 6.52 29.3093 6.52C29.7333 6.52 30.1213 6.592 30.4733 6.736C30.8253 6.88 31.1253 7.096 31.3733 7.384V4.096H32.8733ZM29.4893 11.8C29.8493 11.8 30.1733 11.72 30.4613 11.56C30.7493 11.392 30.9773 11.156 31.1453 10.852C31.3133 10.548 31.3973 10.196 31.3973 9.796C31.3973 9.396 31.3133 9.044 31.1453 8.74C30.9773 8.436 30.7493 8.204 30.4613 8.044C30.1733 7.876 29.8493 7.792 29.4893 7.792C29.1293 7.792 28.8053 7.876 28.5173 8.044C28.2293 8.204 28.0013 8.436 27.8333 8.74C27.6653 9.044 27.5813 9.396 27.5813 9.796C27.5813 10.196 27.6653 10.548 27.8333 10.852C28.0013 11.156 28.2293 11.392 28.5173 11.56C28.8053 11.72 29.1293 11.8 29.4893 11.8ZM40.8596 9.832C40.8596 9.936 40.8516 10.084 40.8356 10.276H35.8076C35.8956 10.748 36.1236 11.124 36.4916 11.404C36.8676 11.676 37.3316 11.812 37.8836 11.812C38.5876 11.812 39.1676 11.58 39.6236 11.116L40.4276 12.04C40.1396 12.384 39.7756 12.644 39.3356 12.82C38.8956 12.996 38.3996 13.084 37.8476 13.084C37.1436 13.084 36.5236 12.944 35.9876 12.664C35.4516 12.384 35.0356 11.996 34.7396 11.5C34.4516 10.996 34.3076 10.428 34.3076 9.796C34.3076 9.172 34.4476 8.612 34.7276 8.116C35.0156 7.612 35.4116 7.22 35.9156 6.94C36.4196 6.66 36.9876 6.52 37.6196 6.52C38.2436 6.52 38.7996 6.66 39.2876 6.94C39.7836 7.212 40.1676 7.6 40.4396 8.104C40.7196 8.6 40.8596 9.176 40.8596 9.832ZM37.6196 7.72C37.1396 7.72 36.7316 7.864 36.3956 8.152C36.0676 8.432 35.8676 8.808 35.7956 9.28H39.4316C39.3676 8.816 39.1716 8.44 38.8436 8.152C38.5156 7.864 38.1076 7.72 37.6196 7.72Z" fill="black"/>
</svg>
