<svg width="52" height="18" viewBox="0 0 52 18" fill="none" xmlns="http://www.w3.org/2000/svg">
<path d="M9 1L1 9L9 17" stroke="black" stroke-width="2" stroke-linecap="round" stroke-linejoin="round"/>
<path d="M43 17L51 9L43 1" stroke="black" stroke-width="2" stroke-linecap="round" stroke-linejoin="round"/>
<path d="M14.924 13.084C14.26 13.084 13.664 12.944 13.136 12.664C12.608 12.384 12.196 11.996 11.9 11.5C11.604 10.996 11.456 10.428 11.456 9.796C11.456 9.164 11.604 8.6 11.9 8.104C12.196 7.608 12.604 7.22 13.124 6.94C13.652 6.66 14.252 6.52 14.924 6.52C15.556 6.52 16.108 6.648 16.58 6.904C17.06 7.16 17.42 7.528 17.66 8.008L16.508 8.68C16.324 8.384 16.092 8.164 15.812 8.02C15.54 7.868 15.24 7.792 14.912 7.792C14.352 7.792 13.888 7.976 13.52 8.344C13.152 8.704 12.968 9.188 12.968 9.796C12.968 10.404 13.148 10.892 13.508 11.26C13.876 11.62 14.344 11.8 14.912 11.8C15.24 11.8 15.54 11.728 15.812 11.584C16.092 11.432 16.324 11.208 16.508 10.912L17.66 11.584C17.412 12.064 17.048 12.436 16.568 12.7C16.096 12.956 15.548 13.084 14.924 13.084ZM21.7429 13.084C21.0949 13.084 20.5109 12.944 19.9909 12.664C19.4709 12.384 19.0629 11.996 18.7669 11.5C18.4789 10.996 18.3349 10.428 18.3349 9.796C18.3349 9.164 18.4789 8.6 18.7669 8.104C19.0629 7.608 19.4709 7.22 19.9909 6.94C20.5109 6.66 21.0949 6.52 21.7429 6.52C22.3989 6.52 22.9869 6.66 23.5069 6.94C24.0269 7.22 24.4309 7.608 24.7189 8.104C25.0149 8.6 25.1629 9.164 25.1629 9.796C25.1629 10.428 25.0149 10.996 24.7189 11.5C24.4309 11.996 24.0269 12.384 23.5069 12.664C22.9869 12.944 22.3989 13.084 21.7429 13.084ZM21.7429 11.8C22.2949 11.8 22.7509 11.616 23.1109 11.248C23.4709 10.88 23.6509 10.396 23.6509 9.796C23.6509 9.196 23.4709 8.712 23.1109 8.344C22.7509 7.976 22.2949 7.792 21.7429 7.792C21.1909 7.792 20.7349 7.976 20.3749 8.344C20.0229 8.712 19.8469 9.196 19.8469 9.796C19.8469 10.396 20.0229 10.88 20.3749 11.248C20.7349 11.616 21.1909 11.8 21.7429 11.8ZM30.1493 6.52C30.7733 6.52 31.3293 6.656 31.8173 6.928C32.3133 7.2 32.7013 7.584 32.9813 8.08C33.2613 8.576 33.4013 9.148 33.4013 9.796C33.4013 10.444 33.2613 11.02 32.9813 11.524C32.7013 12.02 32.3133 12.404 31.8173 12.676C31.3293 12.948 30.7733 13.084 30.1493 13.084C29.2853 13.084 28.6013 12.796 28.0973 12.22V15.328H26.5973V6.592H28.0253V7.432C28.2733 7.128 28.5773 6.9 28.9373 6.748C29.3053 6.596 29.7093 6.52 30.1493 6.52ZM29.9813 11.8C30.5333 11.8 30.9853 11.616 31.3373 11.248C31.6973 10.88 31.8773 10.396 31.8773 9.796C31.8773 9.196 31.6973 8.712 31.3373 8.344C30.9853 7.976 30.5333 7.792 29.9813 7.792C29.6213 7.792 29.2973 7.876 29.0093 8.044C28.7213 8.204 28.4933 8.436 28.3253 8.74C28.1573 9.044 28.0733 9.396 28.0733 9.796C28.0733 10.196 28.1573 10.548 28.3253 10.852C28.4933 11.156 28.7213 11.392 29.0093 11.56C29.2973 11.72 29.6213 11.8 29.9813 11.8ZM40.6481 6.592L37.6481 13.516C37.3681 14.212 37.0281 14.7 36.6281 14.98C36.2281 15.268 35.7441 15.412 35.1761 15.412C34.8561 15.412 34.5401 15.36 34.2281 15.256C33.9161 15.152 33.6601 15.008 33.4601 14.824L34.0601 13.72C34.2041 13.856 34.3721 13.964 34.5641 14.044C34.7641 14.124 34.9641 14.164 35.1641 14.164C35.4281 14.164 35.6441 14.096 35.8121 13.96C35.9881 13.824 36.1481 13.596 36.2921 13.276L36.4001 13.024L33.6041 6.592H35.1641L37.1801 11.332L39.2081 6.592H40.6481Z" fill="black"/>
</svg>
