<svg width="120" height="120" viewBox="0 0 120 120" fill="none" xmlns="http://www.w3.org/2000/svg">
<path d="M94.8387 0H25.1613C18.49 0.00691244 12.0942 2.66035 7.3774 7.3774C2.66057 12.0942 0.00707834 18.49 0 25.1613V94.8387C0.00691244 101.51 2.66035 107.906 7.3774 112.623C12.0942 117.339 18.49 119.993 25.1613 120H94.8387C101.51 119.993 107.906 117.34 112.623 112.623C117.339 107.906 119.993 101.51 120 94.8387V25.1613C119.993 18.49 117.34 12.0942 112.623 7.3774C107.906 2.66057 101.51 0.00707834 94.8387 0V0ZM118.065 25.1613V59.0312H60.9688V1.93548H94.8387C100.997 1.9424 106.9 4.39189 111.254 8.74595C115.608 13.1 118.058 19.0031 118.065 25.1613ZM1.93548 25.1613C1.9424 19.0031 4.39189 13.1 8.74595 8.74595C13.1 4.39189 19.0031 1.94234 25.1613 1.93548H59.0312V59.0312H1.93548V25.1613ZM1.93548 94.8387V60.9688H59.0312V118.065H25.1613C19.0031 118.058 13.1 115.608 8.74595 111.254C4.39189 106.9 1.94234 100.997 1.93548 94.8387ZM118.065 94.8387C118.058 100.997 115.608 106.9 111.254 111.254C106.9 115.608 100.997 118.058 94.8387 118.065H60.9688V60.9688H118.065V94.8387Z" fill="black"/>
<path d="M42.5807 24.6769H36.2903V18.3864C36.2903 16.3119 35.1834 14.3954 33.387 13.3577C31.5907 12.3209 29.3769 12.3209 27.5806 13.3577C25.7842 14.3955 24.6774 16.3118 24.6774 18.3864V24.6769H18.3869C16.3123 24.6769 14.3959 25.7837 13.3582 27.5801C12.3213 29.3765 12.3213 31.5902 13.3582 33.3866C14.3959 35.1829 16.3123 36.2898 18.3869 36.2898H24.6774V42.5802C24.6774 44.6548 25.7842 46.5713 27.5806 47.6089C29.377 48.6458 31.5907 48.6458 33.387 47.6089C35.1834 46.5712 36.2903 44.6548 36.2903 42.5802V36.2898H42.5807C44.6553 36.2898 46.5718 35.1829 47.6094 33.3866C48.6463 31.5902 48.6463 29.3765 47.6094 27.5801C46.5717 25.7837 44.6553 24.6769 42.5807 24.6769ZM42.5807 34.3543H35.3228C34.7879 34.3543 34.355 34.7872 34.355 35.322V42.58C34.355 43.9633 33.6171 45.2412 32.4195 45.9325C31.2219 46.6237 29.7461 46.6237 28.5486 45.9325C27.351 45.2412 26.6131 43.9633 26.6131 42.58V35.322C26.6131 35.0654 26.5111 34.8192 26.3297 34.6377C26.1482 34.4562 25.902 34.3543 25.6453 34.3543H18.3874C17.004 34.3543 15.7261 33.6164 15.0349 32.4188C14.3437 31.2212 14.3437 29.7454 15.0349 28.5478C15.7261 27.3503 17.0041 26.6124 18.3874 26.6124H25.6453C25.902 26.6124 26.1482 26.5104 26.3297 26.329C26.5111 26.1475 26.6131 25.9013 26.6131 25.6446V18.3867C26.6131 17.0033 27.351 15.7254 28.5486 15.0342C29.7461 14.3429 31.222 14.3429 32.4195 15.0342C33.6171 15.7254 34.355 17.0034 34.355 18.3867V25.6446C34.355 25.9013 34.457 26.1475 34.6384 26.329C34.8198 26.5104 35.0661 26.6124 35.3228 26.6124H42.5807C43.9641 26.6124 45.2419 27.3503 45.9332 28.5478C46.6244 29.7454 46.6244 31.2212 45.9332 32.4188C45.2419 33.6164 43.964 34.3543 42.5807 34.3543Z" fill="black"/>
<path d="M42.5806 83.7102H18.386C16.3114 83.7102 14.3949 84.8171 13.3572 86.6134C12.3204 88.4098 12.3204 90.6235 13.3572 92.4199C14.395 94.2163 16.3113 95.3231 18.386 95.3231H42.5806C44.6552 95.3231 46.5717 94.2163 47.6093 92.4199C48.6462 90.6235 48.6462 88.4098 47.6093 86.6134C46.5716 84.8171 44.6552 83.7102 42.5806 83.7102ZM42.5806 93.3876H18.386C17.0026 93.3876 15.7247 92.6497 15.0335 91.4521C14.3422 90.2546 14.3422 88.7787 15.0335 87.5812C15.7247 86.3836 17.0027 85.6457 18.386 85.6457H42.5806C43.964 85.6457 45.2418 86.3836 45.9331 87.5812C46.6243 88.7788 46.6243 90.2546 45.9331 91.4521C45.2418 92.6497 43.9639 93.3876 42.5806 93.3876Z" fill="black"/>
<path d="M77.4194 85.6456H101.614C103.689 85.6456 105.605 84.5388 106.643 82.7424C107.68 80.946 107.68 78.7323 106.643 76.9359C105.605 75.1396 103.689 74.0327 101.614 74.0327H77.4194C75.3448 74.0327 73.4283 75.1396 72.3907 76.9359C71.3538 78.7323 71.3538 80.946 72.3907 82.7424C73.4284 84.5388 75.3448 85.6456 77.4194 85.6456ZM77.4194 75.9682H101.614C102.997 75.9682 104.275 76.7061 104.967 77.9037C105.658 79.1013 105.658 80.5771 104.967 81.7747C104.275 82.9722 102.997 83.7101 101.614 83.7101H77.4194C76.0361 83.7101 74.7582 82.9722 74.0669 81.7747C73.3757 80.5771 73.3757 79.1012 74.0669 77.9037C74.7582 76.7061 76.0361 75.9682 77.4194 75.9682Z" fill="black"/>
<path d="M77.4194 105.001H101.614C103.689 105.001 105.605 103.894 106.643 102.097C107.68 100.301 107.68 98.0873 106.643 96.2909C105.605 94.4945 103.689 93.3877 101.614 93.3877H77.4194C75.3448 93.3877 73.4283 94.4945 72.3907 96.2909C71.3538 98.0873 71.3538 100.301 72.3907 102.097C73.4284 103.894 75.3448 105.001 77.4194 105.001ZM77.4194 95.3232H101.614C102.997 95.3232 104.275 96.0611 104.967 97.2587C105.658 98.4563 105.658 99.9321 104.967 101.13C104.275 102.327 102.997 103.065 101.614 103.065H77.4194C76.0361 103.065 74.7582 102.327 74.0669 101.13C73.3757 99.932 73.3757 98.4562 74.0669 97.2587C74.7582 96.0611 76.0361 95.3232 77.4194 95.3232Z" fill="black"/>
<path d="M81.3057 30.4833L76.8568 34.9298C75.387 36.397 74.8124 38.5373 75.3481 40.5436C75.8838 42.5491 77.4495 44.1173 79.4549 44.6565C81.4604 45.1949 83.6006 44.6228 85.0704 43.1557L89.517 38.6945L93.9635 43.1435C95.4332 44.6107 97.5734 45.1827 99.5791 44.6444C101.585 44.1052 103.15 42.537 103.686 40.5314C104.222 38.5251 103.647 36.3848 102.177 34.9176L97.7282 30.4833L102.177 26.0368C103.644 24.5696 104.218 22.431 103.681 20.4265C103.144 18.4219 101.578 16.8561 99.5739 16.3197C97.5693 15.7823 95.4308 16.356 93.9636 17.8232L89.5171 22.2722L85.0706 17.8232C83.6008 16.356 81.4606 15.784 79.455 16.3223C77.4495 16.8615 75.8838 18.4297 75.3482 20.4353C74.8125 22.4416 75.3871 24.5819 76.8569 26.0491L81.3057 30.4833ZM78.2253 19.1918C78.952 18.466 79.9361 18.0581 80.9635 18.0581C81.99 18.0581 82.9751 18.466 83.7008 19.1918L88.8324 24.3233C89.0139 24.5057 89.2601 24.6076 89.5168 24.6076C89.7734 24.6076 90.0196 24.5057 90.2011 24.3233L95.3232 19.1918C96.303 18.2128 97.7314 17.83 99.0689 18.1886C100.407 18.5472 101.453 19.5927 101.811 20.931C102.17 22.2686 101.787 23.6969 100.808 24.6768L95.6766 29.8084C95.4943 29.9898 95.3923 30.2361 95.3923 30.4927C95.3923 30.7493 95.4943 30.9964 95.6766 31.1779L100.808 36.2896C101.787 37.2694 102.17 38.6978 101.811 40.0353C101.453 41.3738 100.407 42.4192 99.0689 42.7778C97.7314 43.1363 96.3031 42.7536 95.3232 41.7746L90.1916 36.643C90.0101 36.4607 89.7639 36.3587 89.5073 36.3587C89.2506 36.3587 89.0035 36.4607 88.8221 36.643L83.7104 41.7746C82.7305 42.7536 81.3022 43.1363 79.9646 42.7778C78.6262 42.4192 77.5808 41.3737 77.2222 40.0353C76.8636 38.6978 77.2464 37.2695 78.2254 36.2896L83.3569 31.158C83.5393 30.9765 83.6412 30.7303 83.6412 30.4737C83.6412 30.217 83.5393 29.9699 83.3569 29.7884L78.2254 24.6768C77.4996 23.951 77.0917 22.9659 77.0917 21.9395C77.0917 20.9121 77.4996 19.9279 78.2254 19.2021L78.2253 19.1918Z" fill="black"/>
</svg>
