<svg width="120" height="120" viewBox="0 0 120 120" fill="none" xmlns="http://www.w3.org/2000/svg">
<path d="M119.962 31.4691C119.972 31.3679 120 31.2738 120 31.1726C120 31.1459 119.99 31.1248 119.989 31.0981C119.987 30.9758 119.961 30.862 119.941 30.7411C119.919 30.602 119.901 30.467 119.859 30.3363C119.849 30.3082 119.852 30.2773 119.84 30.2492C119.808 30.1564 119.751 30.096 119.708 30.0131C119.665 29.9288 119.64 29.8304 119.587 29.7531L104.947 8.67292C104.919 8.63076 104.88 8.61671 104.849 8.58017C104.824 8.54925 104.805 8.51412 104.777 8.48741C104.756 8.46493 104.744 8.43541 104.722 8.41433C104.68 8.37357 104.627 8.3553 104.58 8.32298C104.516 8.278 104.455 8.23865 104.387 8.20773C104.349 8.19227 104.317 8.15573 104.279 8.14308L79.5796 0.0477847C79.4814 0.0154597 79.3785 0 79.2774 0L40.7212 0.00140543C40.6192 0.00140543 40.5182 0.0168658 40.4191 0.0491902L15.7173 8.14449C15.7106 8.14589 15.7067 8.15292 15.6991 8.15433C15.6923 8.15573 15.6885 8.15433 15.6808 8.15433C15.6519 8.16416 15.6298 8.19649 15.6009 8.21054C15.5365 8.24146 15.4778 8.27941 15.4162 8.32298C15.3537 8.36795 15.2911 8.4073 15.2343 8.46633C15.1939 8.5085 15.1612 8.55487 15.1256 8.60125C15.1025 8.63217 15.0717 8.64201 15.0496 8.67434L0.409865 29.7545C0.349253 29.843 0.318464 29.9555 0.270356 30.0553C0.226098 30.1438 0.168371 30.2141 0.135657 30.3153C0.129885 30.3307 0.131811 30.3518 0.127 30.3673C0.121227 30.3855 0.10872 30.3996 0.103909 30.4179C0.0942877 30.4516 0.0981363 30.4881 0.0904394 30.5204C0.0673485 30.6146 0.0625376 30.7144 0.0500303 30.8128C0.0365607 30.921 0.00769635 31.025 0.00577273 31.1332C0.00577273 31.1473 0 31.1613 0 31.1754C0 31.1894 0.00577273 31.2035 0.00577273 31.2175C0.00673479 31.3201 0.0336739 31.4213 0.0442576 31.5239C0.0596515 31.6462 0.0606126 31.7741 0.0914015 31.8907C0.119303 31.999 0.171257 32.0917 0.212629 32.1929C0.263621 32.3194 0.304993 32.4487 0.375229 32.5569C0.38485 32.571 0.387737 32.5906 0.397358 32.6047C0.397358 32.6047 0.39832 32.6047 0.39832 32.6061L59.0184 119.398C59.0194 119.4 59.0213 119.4 59.0213 119.403C59.0242 119.407 59.0271 119.411 59.03 119.415C59.03 119.415 59.03 119.417 59.0309 119.42C59.0492 119.446 59.0713 119.453 59.0887 119.476C59.1069 119.498 59.1166 119.532 59.1358 119.556C59.1926 119.622 59.259 119.653 59.3205 119.703C59.359 119.737 59.3898 119.782 59.4312 119.809C59.4447 119.819 59.4572 119.836 59.4716 119.845C59.4754 119.847 59.4783 119.85 59.4812 119.851C59.4937 119.859 59.5062 119.859 59.5187 119.865C59.6746 119.949 59.8372 120 59.9998 120C60.1595 120 60.3202 119.949 60.4741 119.866C60.4876 119.858 60.503 119.861 60.5184 119.851C60.5213 119.85 60.5251 119.847 60.528 119.845C60.5405 119.837 60.5501 119.826 60.5607 119.817C60.5982 119.793 60.6271 119.748 60.6646 119.719C60.7223 119.673 60.783 119.644 60.8368 119.585C60.8619 119.559 60.8696 119.521 60.8936 119.491C60.9167 119.46 60.9456 119.45 60.9677 119.421C60.9686 119.42 60.9686 119.417 60.9686 119.417C60.9725 119.413 60.9754 119.408 60.9783 119.403C60.9783 119.403 60.9792 119.403 60.9812 119.401L119.601 32.6017C119.617 32.5792 119.622 32.5497 119.634 32.5258C119.703 32.4148 119.748 32.2897 119.797 32.1632C119.837 32.0578 119.883 31.9636 119.91 31.8526C119.942 31.7275 119.948 31.5982 119.961 31.4675L119.962 31.4691ZM58.6207 52.6126V112.039L25.1851 48.2303L58.6207 52.6126ZM25.2048 44.1856L40.6583 21.1759L56.7247 48.3178L25.2048 44.1856ZM61.3793 52.6209L96.5415 48.2206L61.3793 112.253V52.6209ZM63.2631 48.3401L79.3874 21.1014L96.4121 44.1913L63.2631 48.3401ZM116.309 30.6891L101.486 42.1081L104.878 14.2326L116.309 30.6891ZM98.719 41.8214L82.1388 19.3316L102.26 12.7388L98.719 41.8214ZM60.0001 47.6892L43.7385 20.2185H76.2628L60.0001 47.6892ZM22.9167 41.8383L17.9069 12.7924L38.0018 19.3783L22.9167 41.8383ZM15.2747 14.0164L20.1247 42.1294L3.74452 30.6175L15.2747 14.0164ZM21.285 47.4194L45.5458 93.7101L7.94275 38.0396L21.285 47.4194ZM100.533 47.4011L111.377 39.0471L77.897 88.6191L100.533 47.4011ZM40.8759 4.0283H79.1292L97.6788 10.1095L79.1273 16.1907L40.8764 16.1893L22.3239 10.1081L40.8759 4.0283Z" fill="black"/>
</svg>
