<svg width="120" height="120" viewBox="0 0 120 120" fill="none" xmlns="http://www.w3.org/2000/svg">
<path d="M67.0789 18.9117C67.0789 16.8558 70.4407 15.1958 74.586 15.1958C78.7315 15.1958 82.0993 16.8566 82.0993 18.9117C82.0993 20.9676 78.7375 22.6276 74.586 22.6276C70.4345 22.6284 67.0789 20.9626 67.0789 18.9117ZM107.986 33.5783C104.791 34.4162 102.157 37.238 102.157 39.8775C102.157 42.5159 104.768 43.9843 107.986 43.1706C111.205 42.3561 113.81 39.51 113.81 36.848C113.81 34.1852 111.205 32.7413 107.986 33.5783ZM107.986 53.0005C104.768 53.8376 102.157 56.6603 102.157 59.3038C102.157 61.9474 104.768 63.4106 107.986 62.5684C111.204 61.7263 113.81 58.9136 113.81 56.27C113.81 53.6265 111.205 52.1633 107.986 53.0003V53.0005ZM88.0652 42.9061C84.8471 43.7441 82.2415 46.5659 82.2415 49.2054C82.2415 51.8438 84.8472 53.3121 88.0652 52.4984C91.2833 51.6839 93.9113 48.8145 93.9113 46.1759C93.9113 43.5366 91.2833 42.0691 88.0652 42.9061ZM53.1345 54.0026C53.1345 51.9425 49.7615 50.2726 45.5987 50.2726C41.436 50.2726 38.057 51.9426 38.057 54.0026C38.057 56.0626 41.435 57.7326 45.5987 57.7326C49.7615 57.7326 53.1171 56.0634 53.1171 54.0026H53.1345ZM13.4743 70.3158C10.245 69.4737 7.62816 70.9462 7.62816 73.6089C7.62816 76.2717 10.245 79.0936 13.4743 79.9356C16.7036 80.7777 19.3204 79.3052 19.3204 76.6425C19.3204 73.9805 16.7036 71.1578 13.4743 70.3158ZM31.0312 93.9912C27.8008 93.1348 25.1952 94.6215 25.1952 97.2742C25.1952 99.9269 27.812 102.759 31.0414 103.601C34.2707 104.443 36.8875 102.971 36.8875 100.308C36.8885 97.6458 34.2605 94.8332 31.0301 93.991L31.0312 93.9912ZM58.407 98.7803C55.1777 99.6224 52.5609 102.454 52.5609 105.107C52.5609 107.759 55.1777 109.228 58.407 108.4C61.6374 107.571 64.2482 104.702 64.2482 102.072C64.2482 99.4433 61.6261 97.9239 58.407 98.7803V98.7803ZM68.3253 83.474C65.096 84.3161 62.4792 87.1481 62.4792 89.8006C62.4792 92.4532 65.096 93.9215 68.3253 93.0937C71.5547 92.2659 74.1715 89.4196 74.1715 86.7671C74.1715 84.1135 71.5434 82.6177 68.3141 83.4596L68.3253 83.474ZM79.1137 68.7412C75.8843 69.5833 73.2675 72.4153 73.2675 75.0678C73.2675 77.7204 75.8843 79.1887 79.1137 78.3609C82.343 77.533 84.966 74.6868 84.966 72.0343C84.966 69.3806 82.3318 67.8849 79.1024 68.7268L79.1137 68.7412ZM120 26.7157V61.4573C119.993 63.2788 118.821 64.9638 116.913 65.893L91.1453 78.3348V96.7132C91.1422 98.5414 89.9653 100.233 88.0474 101.163L53.5472 117.824C53.4667 117.876 53.3699 117.928 53.2548 117.989C48.3582 120.421 45.7477 120.731 40.6056 118.459L40.4569 118.398L40.1644 118.257C39.661 118.031 39.1342 117.786 38.5727 117.499L3.13854 100.632C1.19831 99.7066 0.00286958 98.0048 0 96.1625V61.7874V60.6958V60.5786V60.4798C0.126358 55.5502 1.5693 54.426 7.06074 51.9138C7.12902 51.8811 7.16978 51.8711 7.22684 51.8476L29.2042 41.7959V26.6639V25.5773V25.4593C29.2011 25.4283 29.2011 25.3965 29.2042 25.3655C29.3244 20.4543 30.7674 19.335 36.2365 16.828C36.2997 16.7995 36.3455 16.7903 36.4026 16.7619L71.5785 0.646201C73.5085 -0.230225 75.8562 -0.214324 77.7682 0.688893L113.844 17.8484C113.936 17.8911 114.016 17.9421 114.102 17.9899C118.23 20.055 120.029 21.7861 119.989 26.7014L120 26.7157ZM35.3708 20.6008C35.3534 21.2177 35.7458 21.7945 36.3959 22.1059L73.1422 39.7267C73.718 40.0013 74.3712 40.1469 75.0376 40.1469C75.703 40.1469 76.3573 40.0013 76.933 39.7267L112.602 22.5764C113.245 22.2684 113.64 21.7034 113.64 21.0923C113.64 20.4804 113.245 19.9153 112.602 19.6081L76.526 2.44861C75.3735 1.91287 73.9622 1.91287 72.8097 2.44861L36.4312 19.1C35.7719 19.3963 35.3612 19.9647 35.3602 20.5817L35.3708 20.6008ZM31.6828 40.6483L36.6822 38.3622C35.6937 37.2966 35.1353 36.0041 35.0843 34.6648C35.0843 32.0212 37.6951 30.558 40.9132 31.3717V31.3725C43.0889 32.0037 44.8761 33.3087 45.8954 35.0089C46.9032 35.0407 47.8855 35.2726 48.7589 35.6861L59.1458 40.6299C60.3095 40.1804 61.6424 40.1302 62.8509 40.4885C65.3883 41.2309 67.3794 42.8774 68.2682 44.9668L73.8688 47.6481V44.355C73.8668 43.2542 73.1545 42.2371 71.9959 41.6829L34.8269 23.9877C34.511 23.8328 34.1523 23.7483 33.7845 23.7424C32.6299 23.7424 31.6924 24.5109 31.6894 25.4593L31.6828 40.6483ZM44.8527 79.5494H44.8537C44.8516 78.4436 44.1332 77.4223 42.9695 76.8681L5.67012 59.0874C5.35013 58.9325 4.98635 58.8513 4.61643 58.8522C4.24855 58.8522 3.8868 58.9317 3.56786 59.0823C2.91467 59.3879 2.51316 59.9605 2.52031 60.5782V96.162C2.52031 97.267 3.23567 98.2882 4.39837 98.8433L41.716 116.624C42.3661 116.934 43.1671 116.935 43.8182 116.627C44.4684 116.319 44.8699 115.75 44.8709 115.133L44.8527 79.5494ZM47.9158 74.8735L83.7152 57.7039L83.7162 57.7047C84.3643 57.395 84.7617 56.8249 84.7586 56.2088C84.7637 55.5936 84.3623 55.0244 83.7101 54.7222L47.5272 37.4965C46.3686 36.9599 44.9522 36.9599 43.7936 37.4965L7.28212 54.1905C6.62076 54.4902 6.20704 55.0586 6.19891 55.6788C6.19075 56.2991 6.58919 56.8759 7.24239 57.1873L44.1322 74.8742L44.1312 74.8733C44.7089 75.1487 45.3652 75.2935 46.0327 75.2935C46.7001 75.2935 47.3564 75.1487 47.9342 74.8733L47.9158 74.8735ZM88.6248 61.2323H88.6258C88.6227 60.2822 87.6862 59.5112 86.5296 59.5062C86.1597 59.5079 85.7959 59.5891 85.4759 59.7414L49.8175 76.6708C48.6537 77.2274 47.9363 78.2495 47.9343 79.3561V115.105C47.9322 115.723 48.3348 116.295 48.989 116.603C49.6422 116.91 50.4462 116.906 51.0953 116.592L86.7877 99.3425C87.9382 98.7841 88.6464 97.7687 88.6484 96.6704L88.6248 61.2323ZM117.467 26.1135H117.468C117.473 25.4999 117.074 24.9316 116.425 24.6277C115.779 24.3138 114.976 24.3138 114.33 24.6277L78.8047 41.5052C77.642 42.0576 76.9246 43.0772 76.9215 44.1813V49.0968L84.9903 52.9348L84.9892 52.9357C85.0809 52.98 85.1686 53.0286 85.2532 53.0813C89.3934 55.1556 91.1911 56.8917 91.1574 61.8257V63.684H91.1564C91.8096 63.9946 92.3436 64.4483 92.7023 64.9941C93.06 65.5398 93.2261 66.1559 93.1843 66.7745C93.114 68.3073 92.3976 69.7721 91.1565 70.9182V75.9374L115.63 64.1068V64.1076C116.779 63.5518 117.484 62.5397 117.486 61.4448L117.467 26.1135Z" fill="black"/>
</svg>
