<svg width="58" height="58" viewBox="0 0 58 58" fill="none" xmlns="http://www.w3.org/2000/svg">
<g filter="url(#filter0_d_30_323)">
<rect x="2" y="2" width="50" height="50" rx="25" fill="white"/>
</g>
<path d="M27.5 38.6094C34.1878 38.6094 39.6094 33.1878 39.6094 26.5C39.6094 19.8122 34.1878 14.3906 27.5 14.3906C20.8122 14.3906 15.3906 19.8122 15.3906 26.5C15.3906 33.1878 20.8122 38.6094 27.5 38.6094Z" fill="white"/>
<path fill-rule="evenodd" clip-rule="evenodd" d="M27.5 14C20.5992 14 15 19.5992 15 26.5C15 33.4008 20.5992 39 27.5 39C34.3872 39 40 33.4008 40 26.5C40 19.5992 34.3872 14 27.5 14ZM35.7565 19.7619C37.2478 21.5786 38.1427 23.897 38.1698 26.4051C37.8173 26.3373 34.2923 25.6188 30.7402 26.0662C30.6589 25.8899 30.5911 25.7001 30.5098 25.5103C30.2928 24.9952 30.0488 24.4664 29.8048 23.9648C33.7364 22.365 35.526 20.0602 35.7565 19.7619ZM27.5 15.8438C30.2115 15.8438 32.6925 16.8606 34.577 18.5282C34.3872 18.7994 32.7738 20.955 28.9777 22.3785C27.2288 19.1654 25.2902 16.5352 24.9919 16.1285C25.7917 15.9387 26.6323 15.8438 27.5 15.8438ZM22.9583 16.8471C23.243 17.2267 25.141 19.8704 26.917 23.0157C21.9279 24.3444 17.5217 24.3173 17.0472 24.3173C17.7386 21.0092 19.9756 18.257 22.9583 16.8471ZM16.8167 26.5136C16.8167 26.4051 16.8167 26.2966 16.8167 26.1882C17.2777 26.2017 22.4566 26.2695 27.7847 24.6698C28.0966 25.2662 28.3812 25.8763 28.6524 26.4864C28.5168 26.5271 28.3677 26.5678 28.2321 26.6084C22.7278 28.3845 19.7994 33.238 19.5553 33.6448C17.8606 31.7603 16.8167 29.2522 16.8167 26.5136ZM27.5 37.1833C25.0325 37.1833 22.7549 36.3427 20.9517 34.9327C21.1415 34.5396 23.3107 30.3639 29.3302 28.2625C29.3573 28.2489 29.3709 28.2489 29.398 28.2354C30.9029 32.1263 31.513 35.3937 31.6757 36.3291C30.3877 36.885 28.9777 37.1833 27.5 37.1833ZM33.4517 35.353C33.3433 34.7023 32.7738 31.5841 31.3774 27.7473C34.7262 27.2185 37.6545 28.0862 38.0206 28.2083C37.5597 31.1773 35.8514 33.7397 33.4517 35.353Z" fill="black"/>
<defs>
<filter id="filter0_d_30_323" x="0" y="0" width="58" height="58" filterUnits="userSpaceOnUse" color-interpolation-filters="sRGB">
<feFlood flood-opacity="0" result="BackgroundImageFix"/>
<feColorMatrix in="SourceAlpha" type="matrix" values="0 0 0 0 0 0 0 0 0 0 0 0 0 0 0 0 0 0 127 0" result="hardAlpha"/>
<feOffset dx="2" dy="2"/>
<feGaussianBlur stdDeviation="2"/>
<feColorMatrix type="matrix" values="0 0 0 0 0 0 0 0 0 0 0 0 0 0 0 0 0 0 0.25 0"/>
<feBlend mode="normal" in2="BackgroundImageFix" result="effect1_dropShadow_30_323"/>
<feBlend mode="normal" in="SourceGraphic" in2="effect1_dropShadow_30_323" result="shape"/>
</filter>
</defs>
</svg>
