<svg width="58" height="58" viewBox="0 0 58 58" fill="none" xmlns="http://www.w3.org/2000/svg">
<g filter="url(#filter0_d_30_315)">
<rect x="2" y="2" width="50" height="50" rx="25" fill="white"/>
</g>
<g clip-path="url(#clip0_30_315)">
<path d="M27.4 34.8333C27.4 37.0781 25.578 38.9 23.3332 38.9C21.0884 38.9 19.2665 37.0781 19.2665 34.8333C19.2665 32.5886 21.0884 30.7666 23.3332 30.7666H27.4V34.8333Z" fill="black" stroke="white" stroke-width="0.2"/>
<path d="M19.2665 26.5C19.2665 24.2552 21.0884 22.4333 23.3332 22.4333H27.4V30.5666H23.3332C21.0884 30.5667 19.2665 28.7448 19.2665 26.5Z" fill="black" stroke="white" stroke-width="0.2"/>
<path d="M19.2665 18.1667C19.2665 15.9219 21.0884 14.1 23.3332 14.1H27.4V22.2333H23.3332C21.0884 22.2333 19.2665 20.4115 19.2665 18.1667Z" fill="black" stroke="white" stroke-width="0.2"/>
<path d="M27.6 14.1H31.6667C33.9115 14.1 35.7335 15.9219 35.7335 18.1667C35.7335 20.4115 33.9115 22.2333 31.6667 22.2333H27.6V14.1Z" fill="black" stroke="white" stroke-width="0.2"/>
<path d="M35.7335 26.5C35.7335 28.7448 33.9115 30.5667 31.6667 30.5667C29.4219 30.5667 27.6 28.7448 27.6 26.5C27.6 24.2552 29.4219 22.4333 31.6667 22.4333C33.9115 22.4333 35.7335 24.2552 35.7335 26.5Z" fill="black" stroke="white" stroke-width="0.2"/>
</g>
<defs>
<filter id="filter0_d_30_315" x="0" y="0" width="58" height="58" filterUnits="userSpaceOnUse" color-interpolation-filters="sRGB">
<feFlood flood-opacity="0" result="BackgroundImageFix"/>
<feColorMatrix in="SourceAlpha" type="matrix" values="0 0 0 0 0 0 0 0 0 0 0 0 0 0 0 0 0 0 127 0" result="hardAlpha"/>
<feOffset dx="2" dy="2"/>
<feGaussianBlur stdDeviation="2"/>
<feColorMatrix type="matrix" values="0 0 0 0 0 0 0 0 0 0 0 0 0 0 0 0 0 0 0.25 0"/>
<feBlend mode="normal" in2="BackgroundImageFix" result="effect1_dropShadow_30_315"/>
<feBlend mode="normal" in="SourceGraphic" in2="effect1_dropShadow_30_315" result="shape"/>
</filter>
<clipPath id="clip0_30_315">
<rect width="25" height="25" fill="white" transform="translate(15 14)"/>
</clipPath>
</defs>
</svg>
