<svg width="58" height="58" viewBox="0 0 58 58" fill="none" xmlns="http://www.w3.org/2000/svg">
<g filter="url(#filter0_d_30_340)">
<rect x="2" y="2" width="50" height="50" rx="25" fill="white"/>
</g>
<g clip-path="url(#clip0_30_340)">
<path d="M16.5617 15.701C14.5971 17.7417 14.9992 19.9094 14.9992 26.4948C14.9992 31.9635 14.045 37.4458 19.0388 38.7365C20.5982 39.1375 34.4148 39.1375 35.9721 38.7344C38.0513 38.1979 39.743 36.5115 39.9742 33.5708C40.0065 33.1604 40.0065 19.8365 39.9732 19.4177C39.7273 16.2854 37.7992 14.4802 35.2586 14.1146C34.6763 14.0302 34.5596 14.0052 31.5721 14C20.9753 14.0052 18.6523 13.5333 16.5617 15.701V15.701Z" fill="black"/>
<path d="M27.4976 17.2698C23.7153 17.2698 20.1236 16.9333 18.7517 20.4541C18.1851 21.9083 18.2674 23.7969 18.2674 26.501C18.2674 28.8739 18.1913 31.1041 18.7517 32.5469C20.1205 36.0698 23.7413 35.7323 27.4955 35.7323C31.1174 35.7323 34.8517 36.1094 36.2403 32.5469C36.808 31.0781 36.7246 29.2177 36.7246 26.501C36.7246 22.8948 36.9236 20.5666 35.1746 18.8187C33.4038 17.0479 31.009 17.2698 27.4934 17.2698H27.4976ZM26.6705 18.9333C34.5601 18.9208 35.5642 18.0437 35.0101 30.2281C34.8132 34.5375 31.5319 34.0646 27.4986 34.0646C20.1444 34.0646 19.933 33.8541 19.933 26.4969C19.933 19.0541 20.5163 18.9375 26.6705 18.9312V18.9333ZM32.4246 20.4656C31.8132 20.4656 31.3174 20.9614 31.3174 21.5729C31.3174 22.1844 31.8132 22.6802 32.4246 22.6802C33.0361 22.6802 33.5319 22.1844 33.5319 21.5729C33.5319 20.9614 33.0361 20.4656 32.4246 20.4656V20.4656ZM27.4976 21.7604C24.8799 21.7604 22.758 23.8833 22.758 26.501C22.758 29.1187 24.8799 31.2406 27.4976 31.2406C30.1153 31.2406 32.2361 29.1187 32.2361 26.501C32.2361 23.8833 30.1153 21.7604 27.4976 21.7604V21.7604ZM27.4976 23.4239C31.5653 23.4239 31.5705 29.5781 27.4976 29.5781C23.4309 29.5781 23.4246 23.4239 27.4976 23.4239Z" fill="white"/>
</g>
<defs>
<filter id="filter0_d_30_340" x="0" y="0" width="58" height="58" filterUnits="userSpaceOnUse" color-interpolation-filters="sRGB">
<feFlood flood-opacity="0" result="BackgroundImageFix"/>
<feColorMatrix in="SourceAlpha" type="matrix" values="0 0 0 0 0 0 0 0 0 0 0 0 0 0 0 0 0 0 127 0" result="hardAlpha"/>
<feOffset dx="2" dy="2"/>
<feGaussianBlur stdDeviation="2"/>
<feColorMatrix type="matrix" values="0 0 0 0 0 0 0 0 0 0 0 0 0 0 0 0 0 0 0.25 0"/>
<feBlend mode="normal" in2="BackgroundImageFix" result="effect1_dropShadow_30_340"/>
<feBlend mode="normal" in="SourceGraphic" in2="effect1_dropShadow_30_340" result="shape"/>
</filter>
<clipPath id="clip0_30_340">
<rect width="25" height="25" fill="white" transform="translate(15 14)"/>
</clipPath>
</defs>
</svg>
