<svg width="58" height="58" viewBox="0 0 58 58" fill="none" xmlns="http://www.w3.org/2000/svg">
<g filter="url(#filter0_d_30_340)">
<rect x="2" y="2" width="50" height="50" rx="25" fill="white"/>
</g>
<g clip-path="url(#clip0_30_340)">
<path d="M16.5617 15.701C14.5971 17.7416 14.9992 19.9093 14.9992 26.4947C14.9992 31.9635 14.045 37.4458 19.0388 38.7364C20.5982 39.1374 34.4148 39.1374 35.9721 38.7343C38.0513 38.1979 39.743 36.5114 39.9742 33.5708C40.0065 33.1604 40.0065 19.8364 39.9732 19.4176C39.7273 16.2854 37.7992 14.4801 35.2586 14.1145C34.6763 14.0301 34.5596 14.0051 31.5721 13.9999C20.9753 14.0051 18.6523 13.5333 16.5617 15.701V15.701Z" fill="black"/>
<path d="M27.4976 17.2699C23.7153 17.2699 20.1236 16.9334 18.7517 20.4543C18.1851 21.9084 18.2674 23.797 18.2674 26.5011C18.2674 28.8741 18.1913 31.1043 18.7517 32.547C20.1205 36.0699 23.7413 35.7324 27.4955 35.7324C31.1174 35.7324 34.8517 36.1095 36.2403 32.547C36.808 31.0782 36.7246 29.2178 36.7246 26.5011C36.7246 22.8949 36.9236 20.5668 35.1746 18.8189C33.4038 17.048 31.009 17.2699 27.4934 17.2699H27.4976ZM26.6705 18.9334C34.5601 18.9209 35.5642 18.0439 35.0101 30.2282C34.8132 34.5376 31.5319 34.0647 27.4986 34.0647C20.1444 34.0647 19.933 33.8543 19.933 26.497C19.933 19.0543 20.5163 18.9376 26.6705 18.9314V18.9334ZM32.4246 20.4657C31.8132 20.4657 31.3174 20.9616 31.3174 21.573C31.3174 22.1845 31.8132 22.6803 32.4246 22.6803C33.0361 22.6803 33.5319 22.1845 33.5319 21.573C33.5319 20.9616 33.0361 20.4657 32.4246 20.4657V20.4657ZM27.4976 21.7605C24.8799 21.7605 22.758 23.8834 22.758 26.5011C22.758 29.1189 24.8799 31.2407 27.4976 31.2407C30.1153 31.2407 32.2361 29.1189 32.2361 26.5011C32.2361 23.8834 30.1153 21.7605 27.4976 21.7605V21.7605ZM27.4976 23.4241C31.5653 23.4241 31.5705 29.5782 27.4976 29.5782C23.4309 29.5782 23.4246 23.4241 27.4976 23.4241Z" fill="white"/>
</g>
<defs>
<filter id="filter0_d_30_340" x="0" y="0" width="58" height="58" filterUnits="userSpaceOnUse" color-interpolation-filters="sRGB">
<feFlood flood-opacity="0" result="BackgroundImageFix"/>
<feColorMatrix in="SourceAlpha" type="matrix" values="0 0 0 0 0 0 0 0 0 0 0 0 0 0 0 0 0 0 127 0" result="hardAlpha"/>
<feOffset dx="2" dy="2"/>
<feGaussianBlur stdDeviation="2"/>
<feColorMatrix type="matrix" values="0 0 0 0 0 0 0 0 0 0 0 0 0 0 0 0 0 0 0.25 0"/>
<feBlend mode="normal" in2="BackgroundImageFix" result="effect1_dropShadow_30_340"/>
<feBlend mode="normal" in="SourceGraphic" in2="effect1_dropShadow_30_340" result="shape"/>
</filter>
<clipPath id="clip0_30_340">
<rect width="25" height="25" fill="white" transform="translate(15 14)"/>
</clipPath>
</defs>
</svg>
