<svg width="58" height="58" viewBox="0 0 58 58" fill="none" xmlns="http://www.w3.org/2000/svg">
<g filter="url(#filter0_d_30_330)">
<rect x="2" y="2" width="50" height="50" rx="25" fill="white"/>
</g>
<rect x="15" y="14" width="25" height="25" rx="5" fill="white"/>
<path d="M37.7385 14H17.2615C16.0125 14 15 15.0125 15 16.2615V36.7385C15 37.9875 16.0125 39 17.2615 39H37.7385C38.9875 39 40 37.9875 40 36.7385V16.2615C40 15.0125 38.9875 14 37.7385 14ZM22.7361 35.5867C22.7361 35.9501 22.4414 36.2448 22.0779 36.2448H19.2765C18.913 36.2448 18.6184 35.9501 18.6184 35.5867V23.8431C18.6184 23.4796 18.913 23.185 19.2765 23.185H22.0779C22.4414 23.185 22.7361 23.4796 22.7361 23.8431V35.5867ZM20.6772 22.078C19.2074 22.078 18.0158 20.8865 18.0158 19.4166C18.0158 17.9468 19.2074 16.7552 20.6772 16.7552C22.1471 16.7552 23.3386 17.9468 23.3386 19.4166C23.3386 20.8865 22.1471 22.078 20.6772 22.078ZM37.3763 35.6397C37.3763 35.9738 37.1054 36.2448 36.7712 36.2448H33.7651C33.4309 36.2448 33.1599 35.9738 33.1599 35.6397V30.1313C33.1599 29.3096 33.401 26.5304 31.0125 26.5304C29.1598 26.5304 28.784 28.4327 28.7086 29.2863V35.6397C28.7086 35.9738 28.4377 36.2448 28.1035 36.2448H25.196C24.8618 36.2448 24.5909 35.9738 24.5909 35.6397V23.7901C24.5909 23.456 24.8618 23.185 25.196 23.185H28.1035C28.4376 23.185 28.7086 23.456 28.7086 23.7901V24.8147C29.3956 23.7837 30.4165 22.988 32.5902 22.988C37.4039 22.988 37.3763 27.4851 37.3763 29.956V35.6397Z" fill="black"/>
<defs>
<filter id="filter0_d_30_330" x="0" y="0" width="58" height="58" filterUnits="userSpaceOnUse" color-interpolation-filters="sRGB">
<feFlood flood-opacity="0" result="BackgroundImageFix"/>
<feColorMatrix in="SourceAlpha" type="matrix" values="0 0 0 0 0 0 0 0 0 0 0 0 0 0 0 0 0 0 127 0" result="hardAlpha"/>
<feOffset dx="2" dy="2"/>
<feGaussianBlur stdDeviation="2"/>
<feColorMatrix type="matrix" values="0 0 0 0 0 0 0 0 0 0 0 0 0 0 0 0 0 0 0.25 0"/>
<feBlend mode="normal" in2="BackgroundImageFix" result="effect1_dropShadow_30_330"/>
<feBlend mode="normal" in="SourceGraphic" in2="effect1_dropShadow_30_330" result="shape"/>
</filter>
</defs>
</svg>
