<svg width="24" height="24" viewBox="0 0 24 24" fill="none" xmlns="http://www.w3.org/2000/svg">
<path d="M23.0612 2.19455H8.76233C8.56566 1.55517 8.18999 0.999369 7.68834 0.605604C7.1867 0.211838 6.58442 0 5.96655 0C5.34867 0 4.7464 0.211838 4.24475 0.605604C3.74311 0.999369 3.36744 1.55517 3.17077 2.19455H0.938802C0.689817 2.19455 0.45103 2.30252 0.274971 2.4947C0.0989115 2.68688 0 2.94754 0 3.21932C0 3.49111 0.0989115 3.75176 0.274971 3.94394C0.45103 4.13612 0.689817 4.24409 0.938802 4.24409H3.17077C3.36744 4.88347 3.74311 5.43927 4.24475 5.83304C4.7464 6.2268 5.34867 6.43864 5.96655 6.43864C6.58442 6.43864 7.1867 6.2268 7.68834 5.83304C8.18999 5.43927 8.56566 4.88347 8.76233 4.24409H23.0612C23.3102 4.24409 23.549 4.13612 23.725 3.94394C23.9011 3.75176 24 3.49111 24 3.21932C24 2.94754 23.9011 2.68688 23.725 2.4947C23.549 2.30252 23.3102 2.19455 23.0612 2.19455ZM5.96655 4.38842C5.75451 4.38842 5.54723 4.31979 5.37093 4.1912C5.19463 4.06261 5.05721 3.87984 4.97607 3.66601C4.89493 3.45217 4.8737 3.21687 4.91506 2.98986C4.95643 2.76285 5.05853 2.55433 5.20847 2.39067C5.3584 2.22701 5.54943 2.11555 5.75739 2.0704C5.96536 2.02524 6.18092 2.04842 6.37682 2.13699C6.57272 2.22556 6.74015 2.37556 6.85795 2.56801C6.97576 2.76046 7.03863 2.98671 7.03863 3.21817C7.03863 3.5287 6.92573 3.82654 6.72472 4.04628C6.52372 4.26602 6.25103 4.3897 5.96655 4.39016V4.38842Z" fill="#20232A"/>
<path d="M23.0612 10.9758H20.8292C20.6326 10.3364 20.2569 9.78062 19.7552 9.38685C19.2536 8.99309 18.6513 8.78125 18.0335 8.78125C17.4156 8.78125 16.8133 8.99309 16.3117 9.38685C15.81 9.78062 15.4343 10.3364 15.2377 10.9758H0.938802C0.689817 10.9758 0.45103 11.0838 0.274971 11.276C0.0989115 11.4681 0 11.7288 0 12.0006C0 12.2724 0.0989115 12.533 0.274971 12.7252C0.45103 12.9174 0.689817 13.0253 0.938802 13.0253H15.2377C15.4343 13.6647 15.81 14.2205 16.3117 14.6143C16.8133 15.0081 17.4156 15.2199 18.0335 15.2199C18.6513 15.2199 19.2536 15.0081 19.7552 14.6143C20.2569 14.2205 20.6326 13.6647 20.8292 13.0253H23.0612C23.3102 13.0253 23.549 12.9174 23.725 12.7252C23.9011 12.533 24 12.2724 24 12.0006C24 11.7288 23.9011 11.4681 23.725 11.276C23.549 11.0838 23.3102 10.9758 23.0612 10.9758ZM18.0335 13.1697C17.8214 13.1697 17.6141 13.101 17.4378 12.9725C17.2615 12.8439 17.1241 12.6611 17.043 12.4473C16.9618 12.2334 16.9406 11.9981 16.982 11.7711C17.0233 11.5441 17.1254 11.3356 17.2754 11.1719C17.4253 11.0083 17.6163 10.8968 17.8243 10.8516C18.0323 10.8065 18.2478 10.8297 18.4437 10.9182C18.6396 11.0068 18.8071 11.1568 18.9249 11.3493C19.0427 11.5417 19.1055 11.768 19.1055 11.9994C19.1055 12.31 18.9926 12.6078 18.7916 12.8275C18.5906 13.0473 18.3179 13.1709 18.0335 13.1714V13.1697Z" fill="#20232A"/>
<path d="M23.0612 19.7559H12.7846C12.588 19.1165 12.2123 18.5607 11.7106 18.167C11.209 17.7732 10.6067 17.5613 9.98885 17.5613C9.37097 17.5613 8.7687 17.7732 8.26706 18.167C7.76541 18.5607 7.38974 19.1165 7.19307 19.7559H0.938802C0.689817 19.7559 0.45103 19.8639 0.274971 20.056C0.0989115 20.2482 0 20.5089 0 20.7807C0 21.0525 0.0989115 21.3131 0.274971 21.5053C0.45103 21.6975 0.689817 21.8054 0.938802 21.8054H7.19307C7.38974 22.4448 7.76541 23.0006 8.26706 23.3944C8.7687 23.7882 9.37097 24 9.98885 24C10.6067 24 11.209 23.7882 11.7106 23.3944C12.2123 23.0006 12.588 22.4448 12.7846 21.8054H23.0612C23.3102 21.8054 23.549 21.6975 23.725 21.5053C23.9011 21.3131 24 21.0525 24 20.7807C24 20.5089 23.9011 20.2482 23.725 20.056C23.549 19.8639 23.3102 19.7559 23.0612 19.7559ZM9.98885 21.9498C9.77683 21.9498 9.56958 21.8811 9.39329 21.7526C9.21699 21.624 9.07958 21.4413 8.99842 21.2275C8.91727 21.0137 8.896 20.7784 8.93733 20.5514C8.97865 20.3244 9.08071 20.1159 9.23059 19.9522C9.38047 19.7885 9.57144 19.677 9.77937 19.6318C9.9873 19.5866 10.2028 19.6097 10.3988 19.6982C10.5947 19.7867 10.7621 19.9366 10.88 20.1289C10.9979 20.3213 11.0608 20.5475 11.0609 20.7789C11.0607 21.0893 10.9476 21.3868 10.7467 21.6063C10.5457 21.8258 10.2731 21.9493 9.98885 21.9498Z" fill="#20232A"/>
</svg>
