<svg width="120" height="120" viewBox="0 0 120 120" fill="none" xmlns="http://www.w3.org/2000/svg">
<path d="M0 110.322C0 115.658 4.34098 119.999 9.67733 119.999H52.2576C57.594 119.999 61.9349 115.658 61.9349 110.322V100.644H0V110.322ZM3.87093 104.515H58.064V110.322C58.064 113.523 55.459 116.128 52.2576 116.128H9.67733C6.47596 116.128 3.87093 113.523 3.87093 110.322V104.515Z" fill="black"/>
<path d="M58.064 77.4187H61.9349V96.7734H58.064V77.4187Z" fill="black"/>
<path d="M3.87093 38.7093H30.9675V34.8384H3.87093V32.9029C3.87093 29.7015 6.47596 27.0965 9.67733 27.0965H30.9675V23.2256H9.67733C4.34098 23.2256 0 27.5666 0 32.9029V96.7733H3.87093V38.7093Z" fill="black"/>
<path d="M21.29 108.386H40.6447V112.257H21.29V108.386Z" fill="black"/>
<path d="M114.193 0H40.6448C37.4434 0 34.8384 2.60503 34.8384 5.8064V67.7413C34.8384 70.9427 37.4434 73.5477 40.6448 73.5477H114.193C117.394 73.5477 119.999 70.9427 119.999 67.7413V5.8064C119.999 2.60503 117.394 0 114.193 0ZM40.6448 3.87093H114.193C115.26 3.87093 116.128 4.73844 116.128 5.8064V11.6128H38.7093V5.8064C38.7093 4.73844 39.5768 3.87093 40.6448 3.87093ZM46.4512 34.8384V15.4837H54.193V34.8384H46.4512ZM48.3866 38.7093V58.064H38.7093V15.4837H42.5802V38.7093H48.3866ZM52.2576 38.7093H58.064V15.4837H61.9349V58.064H52.2576V38.7093ZM65.8058 15.4837H69.6768V38.7093H75.4832V58.064H65.8058V15.4837ZM73.5477 34.8384V15.4837H81.2896V34.8384H73.5477ZM79.3541 38.7093H85.1605V15.4837H89.0314V58.064H79.3541V38.7093ZM92.9024 15.4837H96.7733V38.7093H102.58V58.064H92.9024V15.4837ZM100.644 34.8384V15.4837H108.386V34.8384H100.644ZM106.451 38.7093H112.257V15.4837H116.128V58.064H106.451V38.7093ZM114.193 69.6768H40.6448C39.5768 69.6768 38.7093 68.8093 38.7093 67.7413V61.9349H116.128V67.7413C116.128 68.8093 115.26 69.6768 114.193 69.6768Z" fill="black"/>
<path d="M77.4185 109.169C76.2823 108.685 74.9758 108.387 73.5475 108.387C69.2066 108.387 65.8057 110.936 65.8057 114.193C65.8057 117.451 69.2066 120 73.5475 120C77.8885 120 81.2894 117.451 81.2894 114.193V94.8387H89.0313V90.9678H77.4185V109.169ZM73.5475 116.129C71.1843 116.129 69.6766 114.983 69.6766 114.193C69.6766 113.404 71.1844 112.258 73.5475 112.258C75.9107 112.258 77.4185 113.404 77.4185 114.193C77.4185 114.983 75.9107 116.129 73.5475 116.129Z" fill="black"/>
<path d="M108.386 95.6206C107.25 95.1367 105.944 94.8386 104.515 94.8386C100.174 94.8386 96.7734 97.3875 96.7734 100.645C96.7734 103.903 100.174 106.451 104.515 106.451C108.856 106.451 112.257 103.903 112.257 100.645V81.2904H119.999V77.4194H108.386V95.6206ZM104.515 102.581C102.152 102.581 100.644 101.435 100.644 100.645C100.644 99.8553 102.152 98.7096 104.515 98.7096C106.878 98.7096 108.386 99.8553 108.386 100.645C108.386 101.435 106.878 102.581 104.515 102.581Z" fill="black"/>
</svg>
