<svg width="126" height="120" viewBox="0 0 126 120" fill="none" xmlns="http://www.w3.org/2000/svg">
<path d="M12.4292 20.5781V70.6965C12.4292 75.3824 16.3001 79.2533 20.986 79.2533H105.332C110.017 79.2533 113.888 75.3824 113.888 70.6965V38.0992C113.888 23.8378 102.276 12.2262 88.0154 12.2262H20.7834C16.0976 12.0225 12.4304 15.8934 12.4304 20.5793L12.4292 20.5781ZM111.444 38.0992V70.6965C111.444 74.16 108.591 77.216 104.924 77.216H20.7811C17.3176 77.216 14.2616 74.3637 14.2616 70.6965V20.5781C14.2616 17.1146 17.1139 14.0586 20.7811 14.0586H87.6056C100.848 14.0586 111.444 24.8565 111.444 38.0992Z" fill="black"/>
<path d="M87.6076 0.204897C86.1815 0.204897 84.9591 1.4273 84.9591 2.85343C84.9591 4.27956 86.1815 5.50196 87.6076 5.50196C105.944 5.50196 120.815 20.3745 120.815 38.7093V71.3066C120.815 80.0671 113.684 87.1978 104.924 87.1978H75.5862L63.1584 114.701C63.1584 114.904 62.751 114.904 62.751 114.701L50.3233 87.1978H20.7808C12.0203 87.1978 4.8896 80.0671 4.8896 71.3066V21.1882C4.8896 12.4277 12.0203 5.29706 20.7808 5.29706H50.5258C51.952 5.29706 53.1744 4.07466 53.1744 2.64853C53.1744 1.2224 51.952 0 50.5258 0H20.7808C9.37172 0.203733 0 9.77919 0 21.1882V71.3066C0 82.9194 9.37172 92.2911 20.9845 92.2911H47.0624L58.0639 116.944C58.8789 118.778 60.9162 120 62.9535 120C64.9909 120 67.0282 118.778 67.8431 116.74L78.8447 92.0874H104.923C116.535 92.0874 125.907 82.7157 125.907 71.1029V38.5056C125.907 17.5211 108.794 0.203733 87.6053 0.203733L87.6076 0.204897Z" fill="black"/>
<path d="M19.1528 48.6937L30.7656 60.1027C31.3767 60.7139 32.3954 61.1214 33.2104 61.1214C34.0253 61.1214 34.8402 60.7139 35.6551 60.1027L58.8807 38.7107C59.8994 37.6921 59.8994 36.0622 59.0845 35.0435C58.0658 34.0249 56.4359 34.0249 55.4173 34.8398L33.2104 55.4169L22.6162 45.0265C21.5976 44.0078 19.9677 44.0078 18.949 45.0265C17.9304 46.0451 18.1341 47.675 19.1528 48.6937Z" fill="black"/>
<path d="M70.2896 51.5458H85.1622V66.4183C85.1622 67.8444 86.3846 69.0668 87.8107 69.0668C89.2368 69.0668 90.4592 67.8444 90.4592 66.4183V51.5458H105.128C106.554 51.5458 107.777 50.3234 107.777 48.8972C107.777 47.4711 106.554 46.2487 105.128 46.2487H90.4592V31.5799C90.4592 30.1538 89.2368 28.9314 87.8107 28.9314C86.3846 28.9314 85.1622 30.1538 85.1622 31.5799V46.2487H70.2896C68.8635 46.2487 67.6411 47.4711 67.6411 48.8972C67.6411 50.3234 68.8635 51.5458 70.2896 51.5458Z" fill="black"/>
<path d="M62.3449 2.85336C62.3449 4.31587 61.1589 5.5019 59.6964 5.5019C58.2339 5.5019 57.0479 4.31587 57.0479 2.85336C57.0479 1.39086 58.2339 0.204834 59.6964 0.204834C61.1589 0.204834 62.3449 1.39086 62.3449 2.85336Z" fill="black"/>
</svg>
