<svg width="298" height="58" viewBox="0 0 298 58" fill="none" xmlns="http://www.w3.org/2000/svg">
<g filter="url(#filter0_d_30_314)">
<rect x="2" y="2" width="50" height="50" rx="25" fill="white"/>
</g>
<g clip-path="url(#clip0_30_314)">
<path d="M27.4 34.8333C27.4 37.0781 25.578 38.9 23.3332 38.9C21.0884 38.9 19.2665 37.0781 19.2665 34.8333C19.2665 32.5886 21.0884 30.7666 23.3332 30.7666H27.4V34.8333Z" fill="black" stroke="white" stroke-width="0.2"/>
<path d="M19.2665 26.5C19.2665 24.2552 21.0884 22.4333 23.3332 22.4333H27.4V30.5666H23.3332C21.0884 30.5667 19.2665 28.7448 19.2665 26.5Z" fill="black" stroke="white" stroke-width="0.2"/>
<path d="M19.2665 18.1667C19.2665 15.9219 21.0884 14.1 23.3332 14.1H27.4V22.2333H23.3332C21.0884 22.2333 19.2665 20.4115 19.2665 18.1667Z" fill="black" stroke="white" stroke-width="0.2"/>
<path d="M27.6 14.1H31.6667C33.9115 14.1 35.7335 15.9219 35.7335 18.1667C35.7335 20.4115 33.9115 22.2333 31.6667 22.2333H27.6V14.1Z" fill="black" stroke="white" stroke-width="0.2"/>
<path d="M35.7335 26.5C35.7335 28.7448 33.9115 30.5667 31.6667 30.5667C29.4219 30.5667 27.6 28.7448 27.6 26.5C27.6 24.2552 29.4219 22.4333 31.6667 22.4333C33.9115 22.4333 35.7335 24.2552 35.7335 26.5Z" fill="black" stroke="white" stroke-width="0.2"/>
</g>
<g filter="url(#filter1_d_30_314)">
<rect x="62" y="2" width="50" height="50" rx="25" fill="white"/>
</g>
<path d="M87.5 38.6094C94.1878 38.6094 99.6094 33.1878 99.6094 26.5C99.6094 19.8122 94.1878 14.3906 87.5 14.3906C80.8122 14.3906 75.3906 19.8122 75.3906 26.5C75.3906 33.1878 80.8122 38.6094 87.5 38.6094Z" fill="white"/>
<path fill-rule="evenodd" clip-rule="evenodd" d="M87.5 14C80.5992 14 75 19.5992 75 26.5C75 33.4008 80.5992 39 87.5 39C94.3872 39 100 33.4008 100 26.5C100 19.5992 94.3872 14 87.5 14ZM95.7565 19.7619C97.2478 21.5786 98.1427 23.897 98.1698 26.4051C97.8173 26.3373 94.2923 25.6188 90.7402 26.0662C90.6589 25.8899 90.5911 25.7001 90.5098 25.5103C90.2928 24.9952 90.0488 24.4664 89.8048 23.9648C93.7364 22.365 95.526 20.0602 95.7565 19.7619ZM87.5 15.8438C90.2115 15.8438 92.6925 16.8606 94.577 18.5282C94.3872 18.7994 92.7738 20.955 88.9777 22.3785C87.2288 19.1654 85.2902 16.5352 84.9919 16.1285C85.7917 15.9387 86.6323 15.8438 87.5 15.8438ZM82.9583 16.8471C83.243 17.2267 85.141 19.8704 86.917 23.0157C81.9279 24.3444 77.5217 24.3173 77.0472 24.3173C77.7386 21.0092 79.9756 18.257 82.9583 16.8471ZM76.8167 26.5136C76.8167 26.4051 76.8167 26.2966 76.8167 26.1882C77.2777 26.2017 82.4566 26.2695 87.7847 24.6698C88.0966 25.2662 88.3812 25.8763 88.6524 26.4864C88.5168 26.5271 88.3677 26.5678 88.2321 26.6084C82.7278 28.3845 79.7994 33.238 79.5553 33.6448C77.8606 31.7603 76.8167 29.2522 76.8167 26.5136ZM87.5 37.1833C85.0325 37.1833 82.7549 36.3427 80.9517 34.9327C81.1415 34.5396 83.3107 30.3639 89.3302 28.2625C89.3573 28.2489 89.3709 28.2489 89.398 28.2354C90.9029 32.1263 91.513 35.3937 91.6757 36.3291C90.3877 36.885 88.9777 37.1833 87.5 37.1833ZM93.4517 35.353C93.3433 34.7023 92.7738 31.5841 91.3774 27.7473C94.7262 27.2185 97.6545 28.0862 98.0206 28.2083C97.5597 31.1773 95.8514 33.7397 93.4517 35.353Z" fill="black"/>
<g filter="url(#filter2_d_30_314)">
<rect x="122" y="2" width="50" height="50" rx="25" fill="white"/>
</g>
<rect x="135" y="14" width="25" height="25" rx="5" fill="white"/>
<path d="M157.739 14H137.261C136.013 14 135 15.0125 135 16.2615V36.7385C135 37.9875 136.013 39 137.261 39H157.738C158.988 39 160 37.9875 160 36.7385V16.2615C160 15.0125 158.988 14 157.739 14ZM142.736 35.5867C142.736 35.9501 142.441 36.2448 142.078 36.2448H139.277C138.913 36.2448 138.618 35.9501 138.618 35.5867V23.8431C138.618 23.4796 138.913 23.185 139.277 23.185H142.078C142.441 23.185 142.736 23.4796 142.736 23.8431V35.5867ZM140.677 22.078C139.207 22.078 138.016 20.8865 138.016 19.4166C138.016 17.9468 139.207 16.7552 140.677 16.7552C142.147 16.7552 143.339 17.9468 143.339 19.4166C143.339 20.8865 142.147 22.078 140.677 22.078ZM157.376 35.6397C157.376 35.9738 157.105 36.2448 156.771 36.2448H153.765C153.431 36.2448 153.16 35.9738 153.16 35.6397V30.1313C153.16 29.3096 153.401 26.5304 151.013 26.5304C149.16 26.5304 148.784 28.4327 148.709 29.2863V35.6397C148.709 35.9738 148.438 36.2448 148.103 36.2448H145.196C144.862 36.2448 144.591 35.9738 144.591 35.6397V23.7901C144.591 23.456 144.862 23.185 145.196 23.185H148.103C148.438 23.185 148.709 23.456 148.709 23.7901V24.8147C149.396 23.7837 150.416 22.988 152.59 22.988C157.404 22.988 157.376 27.4851 157.376 29.956V35.6397Z" fill="black"/>
<g filter="url(#filter3_d_30_314)">
<rect x="182" y="2" width="50" height="50" rx="25" fill="white"/>
</g>
<path d="M218.937 19.5625C218.259 18.3562 217.523 18.1344 216.025 18.05C214.528 17.9484 210.764 17.9062 207.503 17.9062C204.236 17.9062 200.47 17.9484 198.975 18.0484C197.48 18.1344 196.742 18.3547 196.058 19.5625C195.359 20.7672 195 22.8422 195 26.4953C195 26.4984 195 26.5 195 26.5C195 26.5031 195 26.5047 195 26.5047V26.5078C195 30.1453 195.359 32.2359 196.058 33.4281C196.742 34.6344 197.478 34.8531 198.973 34.9547C200.47 35.0422 204.236 35.0938 207.503 35.0938C210.764 35.0938 214.528 35.0422 216.027 34.9562C217.525 34.8547 218.261 34.6359 218.939 33.4297C219.644 32.2375 220 30.1469 220 26.5094C220 26.5094 220 26.5047 220 26.5016C220 26.5016 220 26.4984 220 26.4969C220 22.8422 219.644 20.7672 218.937 19.5625Z" fill="black"/>
<path d="M204.375 31.1875V21.8125L212.187 26.5L204.375 31.1875Z" fill="white"/>
<g filter="url(#filter4_d_30_314)">
<rect x="242" y="2" width="50" height="50" rx="25" fill="white"/>
</g>
<g clip-path="url(#clip1_30_314)">
<path d="M256.562 15.701C254.597 17.7417 254.999 19.9094 254.999 26.4948C254.999 31.9635 254.045 37.4458 259.039 38.7365C260.598 39.1375 274.415 39.1375 275.972 38.7344C278.051 38.1979 279.743 36.5115 279.974 33.5708C280.006 33.1604 280.006 19.8365 279.973 19.4177C279.727 16.2854 277.799 14.4802 275.259 14.1146C274.676 14.0302 274.56 14.0052 271.572 14C260.975 14.0052 258.652 13.5333 256.562 15.701V15.701Z" fill="black"/>
<path d="M267.498 17.2698C263.715 17.2698 260.124 16.9333 258.752 20.4541C258.185 21.9083 258.267 23.7969 258.267 26.501C258.267 28.8739 258.191 31.1041 258.752 32.5469C260.12 36.0698 263.741 35.7323 267.495 35.7323C271.117 35.7323 274.852 36.1094 276.24 32.5469C276.808 31.0781 276.725 29.2177 276.725 26.501C276.725 22.8948 276.924 20.5666 275.175 18.8187C273.404 17.0479 271.009 17.2698 267.493 17.2698H267.498ZM266.67 18.9333C274.56 18.9208 275.564 18.0437 275.01 30.2281C274.813 34.5375 271.532 34.0646 267.499 34.0646C260.144 34.0646 259.933 33.8541 259.933 26.4969C259.933 19.0541 260.516 18.9375 266.67 18.9312V18.9333ZM272.425 20.4656C271.813 20.4656 271.317 20.9614 271.317 21.5729C271.317 22.1844 271.813 22.6802 272.425 22.6802C273.036 22.6802 273.532 22.1844 273.532 21.5729C273.532 20.9614 273.036 20.4656 272.425 20.4656V20.4656ZM267.498 21.7604C264.88 21.7604 262.758 23.8833 262.758 26.501C262.758 29.1187 264.88 31.2406 267.498 31.2406C270.115 31.2406 272.236 29.1187 272.236 26.501C272.236 23.8833 270.115 21.7604 267.498 21.7604V21.7604ZM267.498 23.4239C271.565 23.4239 271.57 29.5781 267.498 29.5781C263.431 29.5781 263.425 23.4239 267.498 23.4239Z" fill="white"/>
</g>
<defs>
<filter id="filter0_d_30_314" x="0" y="0" width="58" height="58" filterUnits="userSpaceOnUse" color-interpolation-filters="sRGB">
<feFlood flood-opacity="0" result="BackgroundImageFix"/>
<feColorMatrix in="SourceAlpha" type="matrix" values="0 0 0 0 0 0 0 0 0 0 0 0 0 0 0 0 0 0 127 0" result="hardAlpha"/>
<feOffset dx="2" dy="2"/>
<feGaussianBlur stdDeviation="2"/>
<feColorMatrix type="matrix" values="0 0 0 0 0 0 0 0 0 0 0 0 0 0 0 0 0 0 0.25 0"/>
<feBlend mode="normal" in2="BackgroundImageFix" result="effect1_dropShadow_30_314"/>
<feBlend mode="normal" in="SourceGraphic" in2="effect1_dropShadow_30_314" result="shape"/>
</filter>
<filter id="filter1_d_30_314" x="60" y="0" width="58" height="58" filterUnits="userSpaceOnUse" color-interpolation-filters="sRGB">
<feFlood flood-opacity="0" result="BackgroundImageFix"/>
<feColorMatrix in="SourceAlpha" type="matrix" values="0 0 0 0 0 0 0 0 0 0 0 0 0 0 0 0 0 0 127 0" result="hardAlpha"/>
<feOffset dx="2" dy="2"/>
<feGaussianBlur stdDeviation="2"/>
<feColorMatrix type="matrix" values="0 0 0 0 0 0 0 0 0 0 0 0 0 0 0 0 0 0 0.25 0"/>
<feBlend mode="normal" in2="BackgroundImageFix" result="effect1_dropShadow_30_314"/>
<feBlend mode="normal" in="SourceGraphic" in2="effect1_dropShadow_30_314" result="shape"/>
</filter>
<filter id="filter2_d_30_314" x="120" y="0" width="58" height="58" filterUnits="userSpaceOnUse" color-interpolation-filters="sRGB">
<feFlood flood-opacity="0" result="BackgroundImageFix"/>
<feColorMatrix in="SourceAlpha" type="matrix" values="0 0 0 0 0 0 0 0 0 0 0 0 0 0 0 0 0 0 127 0" result="hardAlpha"/>
<feOffset dx="2" dy="2"/>
<feGaussianBlur stdDeviation="2"/>
<feColorMatrix type="matrix" values="0 0 0 0 0 0 0 0 0 0 0 0 0 0 0 0 0 0 0.25 0"/>
<feBlend mode="normal" in2="BackgroundImageFix" result="effect1_dropShadow_30_314"/>
<feBlend mode="normal" in="SourceGraphic" in2="effect1_dropShadow_30_314" result="shape"/>
</filter>
<filter id="filter3_d_30_314" x="180" y="0" width="58" height="58" filterUnits="userSpaceOnUse" color-interpolation-filters="sRGB">
<feFlood flood-opacity="0" result="BackgroundImageFix"/>
<feColorMatrix in="SourceAlpha" type="matrix" values="0 0 0 0 0 0 0 0 0 0 0 0 0 0 0 0 0 0 127 0" result="hardAlpha"/>
<feOffset dx="2" dy="2"/>
<feGaussianBlur stdDeviation="2"/>
<feColorMatrix type="matrix" values="0 0 0 0 0 0 0 0 0 0 0 0 0 0 0 0 0 0 0.25 0"/>
<feBlend mode="normal" in2="BackgroundImageFix" result="effect1_dropShadow_30_314"/>
<feBlend mode="normal" in="SourceGraphic" in2="effect1_dropShadow_30_314" result="shape"/>
</filter>
<filter id="filter4_d_30_314" x="240" y="0" width="58" height="58" filterUnits="userSpaceOnUse" color-interpolation-filters="sRGB">
<feFlood flood-opacity="0" result="BackgroundImageFix"/>
<feColorMatrix in="SourceAlpha" type="matrix" values="0 0 0 0 0 0 0 0 0 0 0 0 0 0 0 0 0 0 127 0" result="hardAlpha"/>
<feOffset dx="2" dy="2"/>
<feGaussianBlur stdDeviation="2"/>
<feColorMatrix type="matrix" values="0 0 0 0 0 0 0 0 0 0 0 0 0 0 0 0 0 0 0.25 0"/>
<feBlend mode="normal" in2="BackgroundImageFix" result="effect1_dropShadow_30_314"/>
<feBlend mode="normal" in="SourceGraphic" in2="effect1_dropShadow_30_314" result="shape"/>
</filter>
<clipPath id="clip0_30_314">
<rect width="25" height="25" fill="white" transform="translate(15 14)"/>
</clipPath>
<clipPath id="clip1_30_314">
<rect width="25" height="25" fill="white" transform="translate(255 14)"/>
</clipPath>
</defs>
</svg>
