<svg width="58" height="58" viewBox="0 0 58 58" fill="none" xmlns="http://www.w3.org/2000/svg">
<g filter="url(#filter0_d_52_358)">
<rect x="2" y="2" width="50" height="50" rx="25" fill="white"/>
</g>
<path d="M41.4958 19.7842C40.5278 20.2242 39.5598 20.4882 38.4158 20.6642C39.4718 19.9602 40.3518 18.9922 40.7918 17.7602C39.7358 18.3762 38.5918 18.8162 37.4478 19.0802C36.4798 18.0242 35.0718 17.4082 33.5758 17.4082C30.6718 17.4082 28.2078 19.7842 28.2078 22.7762C28.2078 23.2162 28.2958 23.5682 28.3838 24.0082C23.9838 23.8322 20.0238 21.6322 17.3838 18.4642C16.9438 19.0802 16.6798 19.9602 16.6798 20.9282C16.6798 22.7762 17.6478 24.4482 19.0558 25.3282C18.1758 25.3282 17.3838 25.0642 16.6798 24.6242V24.7122C16.6798 27.2642 18.5278 29.4642 20.9918 29.9042C20.5518 29.9922 20.1118 30.0802 19.5838 30.0802C19.2318 30.0802 18.8798 30.0802 18.6158 29.9922C19.3198 32.1042 21.2558 33.6882 23.6318 33.6882C21.7838 35.0962 19.4958 35.9762 17.0318 35.9762C16.5918 35.9762 16.1518 35.9762 15.7998 35.8882C17.9118 37.5602 20.7278 38.4402 23.7198 38.4402C33.4878 38.4402 38.8558 30.3442 38.8558 23.3042V22.6002C39.9118 21.8082 40.7918 20.9282 41.4958 19.7842Z" fill="black"/>
<defs>
<filter id="filter0_d_52_358" x="0" y="0" width="58" height="58" filterUnits="userSpaceOnUse" color-interpolation-filters="sRGB">
<feFlood flood-opacity="0" result="BackgroundImageFix"/>
<feColorMatrix in="SourceAlpha" type="matrix" values="0 0 0 0 0 0 0 0 0 0 0 0 0 0 0 0 0 0 127 0" result="hardAlpha"/>
<feOffset dx="2" dy="2"/>
<feGaussianBlur stdDeviation="2"/>
<feColorMatrix type="matrix" values="0 0 0 0 0 0 0 0 0 0 0 0 0 0 0 0 0 0 0.25 0"/>
<feBlend mode="normal" in2="BackgroundImageFix" result="effect1_dropShadow_52_358"/>
<feBlend mode="normal" in="SourceGraphic" in2="effect1_dropShadow_52_358" result="shape"/>
</filter>
</defs>
</svg>
