<svg width="58" height="58" viewBox="0 0 58 58" fill="none" xmlns="http://www.w3.org/2000/svg">
<g filter="url(#filter0_d_52_358)">
<rect x="2" y="2" width="50" height="50" rx="25" fill="white"/>
</g>
<path d="M41.4958 19.7843C40.5278 20.2243 39.5598 20.4883 38.4158 20.6643C39.4718 19.9603 40.3518 18.9923 40.7918 17.7603C39.7358 18.3763 38.5918 18.8163 37.4478 19.0803C36.4798 18.0243 35.0718 17.4083 33.5758 17.4083C30.6718 17.4083 28.2078 19.7843 28.2078 22.7763C28.2078 23.2163 28.2958 23.5683 28.3838 24.0083C23.9838 23.8323 20.0238 21.6323 17.3838 18.4643C16.9438 19.0803 16.6798 19.9603 16.6798 20.9283C16.6798 22.7763 17.6478 24.4483 19.0558 25.3283C18.1758 25.3283 17.3838 25.0643 16.6798 24.6243V24.7123C16.6798 27.2643 18.5278 29.4643 20.9918 29.9043C20.5518 29.9923 20.1118 30.0803 19.5838 30.0803C19.2318 30.0803 18.8798 30.0803 18.6158 29.9923C19.3198 32.1042 21.2558 33.6882 23.6318 33.6882C21.7838 35.0962 19.4958 35.9762 17.0318 35.9762C16.5918 35.9762 16.1518 35.9762 15.7998 35.8882C17.9118 37.5602 20.7278 38.4402 23.7198 38.4402C33.4878 38.4402 38.8558 30.3442 38.8558 23.3043V22.6003C39.9118 21.8083 40.7918 20.9283 41.4958 19.7843Z" fill="black"/>
<defs>
<filter id="filter0_d_52_358" x="0" y="0" width="58" height="58" filterUnits="userSpaceOnUse" color-interpolation-filters="sRGB">
<feFlood flood-opacity="0" result="BackgroundImageFix"/>
<feColorMatrix in="SourceAlpha" type="matrix" values="0 0 0 0 0 0 0 0 0 0 0 0 0 0 0 0 0 0 127 0" result="hardAlpha"/>
<feOffset dx="2" dy="2"/>
<feGaussianBlur stdDeviation="2"/>
<feColorMatrix type="matrix" values="0 0 0 0 0 0 0 0 0 0 0 0 0 0 0 0 0 0 0.25 0"/>
<feBlend mode="normal" in2="BackgroundImageFix" result="effect1_dropShadow_52_358"/>
<feBlend mode="normal" in="SourceGraphic" in2="effect1_dropShadow_52_358" result="shape"/>
</filter>
</defs>
</svg>
