<svg width="120" height="120" viewBox="0 0 120 120" fill="none" xmlns="http://www.w3.org/2000/svg">
<path d="M65.9295 108.007C67.5199 108.007 69.0451 108.639 70.1697 109.763C71.2942 110.888 71.926 112.413 71.926 114.004C71.926 115.594 71.2942 117.119 70.1697 118.244C69.0451 119.368 67.5199 120 65.9295 120C64.3392 120 62.814 119.368 61.6894 118.244C60.5649 117.119 59.9331 115.594 59.9331 114.004C59.9331 112.413 60.5649 110.888 61.6894 109.763C62.814 108.639 64.3392 108.007 65.9295 108.007V108.007ZM44.942 102.011C46.5324 102.011 48.0576 102.642 49.1821 103.767C50.3067 104.892 50.9384 106.417 50.9384 108.007C50.9384 109.597 50.3067 111.123 49.1821 112.247C48.0576 113.372 46.5324 114.004 44.942 114.004C43.3517 114.004 41.8264 113.372 40.7019 112.247C39.5773 111.123 38.9456 109.597 38.9456 108.007C38.9456 106.417 39.5773 104.892 40.7019 103.767C41.8264 102.642 43.3517 102.011 44.942 102.011V102.011ZM86.9171 102.011C88.5074 102.011 90.0327 102.642 91.1572 103.767C92.2818 104.892 92.9135 106.417 92.9135 108.007C92.9135 109.597 92.2818 111.123 91.1572 112.247C90.0327 113.372 88.5074 114.004 86.9171 114.004C85.3267 114.004 83.8015 113.372 82.677 112.247C81.5524 111.123 80.9206 109.597 80.9206 108.007C80.9206 106.417 81.5524 104.892 82.677 103.767C83.8015 102.642 85.3267 102.011 86.9171 102.011ZM65.9265 23.994C84.9263 23.994 95.7048 36.5686 97.2729 51.7575H97.7526C109.979 51.7575 119.891 61.6427 119.891 73.8394C119.891 86.0362 109.979 95.9213 97.7526 95.9213H34.1004C21.8737 95.9213 11.9616 86.0362 11.9616 73.8394C11.9616 61.6427 21.8737 51.7575 34.1004 51.7575H34.5802C36.1572 36.4696 46.9268 23.994 65.9265 23.994V23.994ZM65.9265 31.4746C53.1511 31.4746 42.0157 41.8124 42.0157 56.09C42.0157 58.3536 40.0489 60.1286 37.7942 60.1286H33.5368C25.7594 60.1286 19.4541 66.4668 19.4541 74.2832C19.4541 82.1025 25.7594 88.4408 33.5368 88.4408H98.3163C106.094 88.4408 112.399 82.1025 112.399 74.2832C112.399 66.4668 106.094 60.1316 98.3163 60.1316H94.0588C91.8042 60.1316 89.8373 58.3536 89.8373 56.09C89.8373 41.6296 78.702 31.4746 65.9265 31.4746V31.4746ZM14.0873 48.8583C14.4401 49.7108 14.4643 50.6639 14.1553 51.5333C13.8463 52.4027 13.226 53.1268 12.4143 53.5655L12.0695 53.7304L5.13764 56.6147C4.25584 56.9733 3.27028 56.9812 2.38283 56.6368C1.49539 56.2923 0.773238 55.6216 0.364305 54.7619C-0.0446267 53.9023 -0.109387 52.9188 0.18329 52.013C0.475967 51.1071 1.10393 50.3475 1.93854 49.8896L2.28334 49.7247L9.21522 46.8405C10.1289 46.4622 11.1554 46.4623 12.069 46.8407C12.9827 47.219 13.7086 47.9448 14.0873 48.8583ZM53.0642 19.9554L52.8783 20.0124C50.1079 20.9179 47.5295 22.1171 45.1729 23.5803C41.9529 22.2178 38.3831 21.914 34.9792 22.7129C31.5753 23.5117 28.5134 25.3719 26.2357 28.0246C23.958 30.6773 22.5825 33.9854 22.3077 37.471C22.0329 40.9565 22.8731 44.4393 24.707 47.4161C22.4509 48.2224 20.3084 49.3168 18.3328 50.6722C15.5742 45.9478 14.54 40.4128 15.4065 35.011C16.273 29.6093 18.9866 24.6755 23.0844 21.051C27.1822 17.4264 32.4105 15.3357 37.8777 15.1354C43.3448 14.9351 48.7121 16.6375 53.0642 19.9524V19.9554ZM4.7059 20.4921L5.08667 20.63L12.0425 23.5953C13.9284 24.3928 14.8339 26.5785 14.0633 28.4764C13.3438 30.2513 11.4159 31.1448 9.62598 30.6081L9.2482 30.4732L2.29533 27.5049C1.38688 27.1174 0.666345 26.3894 0.288066 25.4771C-0.0902137 24.5647 -0.0961496 23.5405 0.271532 22.6238C0.991104 20.8519 2.91896 19.9554 4.7089 20.4921H4.7059ZM26.7998 1.9811L26.9647 2.32889L29.843 9.24279C30.2116 10.1307 30.2249 11.1263 29.8801 12.0237C29.5354 12.9211 28.8589 13.6517 27.9907 14.0645C27.1224 14.4772 26.1288 14.5405 25.2152 14.2413C24.3016 13.9421 23.5379 13.3033 23.082 12.4569L22.9171 12.1121L20.0388 5.19819C19.6659 4.30963 19.6495 3.31155 19.9932 2.41126C20.3368 1.51097 21.0141 0.77764 21.8842 0.363587C22.7544 -0.0504652 23.7506 -0.113423 24.666 0.187789C25.5813 0.489 26.3455 1.13123 26.7998 1.9811V1.9811ZM53.9277 0.302097C55.7326 1.05165 56.653 3.03048 56.1164 4.86239L55.9785 5.25216L53.0042 12.0761C52.6275 12.9628 51.9272 13.6727 51.0457 14.0615C50.1642 14.4504 49.1678 14.4889 48.2589 14.1692C47.3501 13.8496 46.5971 13.1959 46.1531 12.3409C45.709 11.4859 45.6072 10.4939 45.8685 9.5666L46.0064 9.17683L48.9776 2.35288C49.3623 1.42469 50.0998 0.687256 51.0281 0.302692C51.9563 -0.081872 52.9993 -0.0820867 53.9277 0.302097V0.302097Z" fill="black"/>
</svg>
