<svg width="58" height="58" viewBox="0 0 58 58" fill="none" xmlns="http://www.w3.org/2000/svg">
<g filter="url(#filter0_d_30_334)">
<rect x="2" y="2" width="50" height="50" rx="25" fill="white"/>
</g>
<path d="M38.9375 19.5625C38.2594 18.3562 37.5234 18.1344 36.025 18.05C34.5281 17.9484 30.7641 17.9062 27.5031 17.9062C24.2359 17.9062 20.4703 17.9484 18.975 18.0484C17.4797 18.1344 16.7422 18.3547 16.0578 19.5625C15.3594 20.7672 15 22.8422 15 26.4953C15 26.4984 15 26.5 15 26.5C15 26.5031 15 26.5047 15 26.5047V26.5078C15 30.1453 15.3594 32.2359 16.0578 33.4281C16.7422 34.6344 17.4781 34.8531 18.9734 34.9547C20.4703 35.0422 24.2359 35.0938 27.5031 35.0938C30.7641 35.0938 34.5281 35.0422 36.0266 34.9562C37.525 34.8547 38.2609 34.6359 38.9391 33.4297C39.6438 32.2375 40 30.1469 40 26.5094C40 26.5094 40 26.5047 40 26.5016C40 26.5016 40 26.4984 40 26.4969C40 22.8422 39.6437 20.7672 38.9375 19.5625Z" fill="black"/>
<path d="M24.375 31.1875V21.8125L32.1875 26.5L24.375 31.1875Z" fill="white"/>
<defs>
<filter id="filter0_d_30_334" x="0" y="0" width="58" height="58" filterUnits="userSpaceOnUse" color-interpolation-filters="sRGB">
<feFlood flood-opacity="0" result="BackgroundImageFix"/>
<feColorMatrix in="SourceAlpha" type="matrix" values="0 0 0 0 0 0 0 0 0 0 0 0 0 0 0 0 0 0 127 0" result="hardAlpha"/>
<feOffset dx="2" dy="2"/>
<feGaussianBlur stdDeviation="2"/>
<feColorMatrix type="matrix" values="0 0 0 0 0 0 0 0 0 0 0 0 0 0 0 0 0 0 0.25 0"/>
<feBlend mode="normal" in2="BackgroundImageFix" result="effect1_dropShadow_30_334"/>
<feBlend mode="normal" in="SourceGraphic" in2="effect1_dropShadow_30_334" result="shape"/>
</filter>
</defs>
</svg>
